<?xml version="1.0" standalone="no"?>
<!DOCTYPE svg PUBLIC "-//W3C//DTD SVG 20010904//EN"
 "http://www.w3.org/TR/2001/REC-SVG-20010904/DTD/svg10.dtd">
<svg version="1.0" xmlns="http://www.w3.org/2000/svg"
 width="512.000000pt" height="512.000000pt" viewBox="0 0 512.000000 512.000000"
 preserveAspectRatio="xMidYMid meet">
<metadata>
Created by potrace 1.14, written by Peter Selinger 2001-2017
</metadata>
<g transform="translate(0.000000,512.000000) scale(0.100000,-0.100000)"
fill="#000000" stroke="none">
<path d="M0 2560 l0 -1900 2560 0 2560 0 0 1900 0 1900 -2560 0 -2560 0 0
-1900z m1936 881 c57 -26 81 -65 105 -170 l22 -91 652 0 c580 0 654 -2 666
-16 10 -13 4 -66 -40 -317 -54 -313 -59 -329 -115 -371 -27 -20 -40 -21 -517
-24 -457 -3 -490 -4 -485 -20 2 -9 10 -43 16 -75 21 -104 -18 -97 513 -97 402
0 465 -2 485 -16 29 -20 28 -50 -2 -69 -21 -14 -81 -15 -493 -13 l-469 3 -40
26 c-22 14 -47 41 -57 60 -9 19 -65 255 -123 524 -58 270 -110 507 -115 527
-13 50 -49 68 -132 68 -36 0 -68 5 -75 12 -17 17 -15 44 4 62 23 23 146 21
200 -3z m604 -1453 c51 -35 73 -71 78 -131 7 -91 -48 -165 -136 -183 -101 -20
-202 66 -202 171 0 64 50 135 110 158 39 15 118 7 150 -15z m510 3 c96 -51
118 -179 44 -261 -112 -123 -306 -39 -292 127 5 60 27 96 78 131 42 28 120 30
170 3z"/>
<path d="M2084 3073 c2 -10 14 -62 26 -115 l22 -98 109 0 c88 0 109 3 109 14
0 19 -19 165 -25 194 -5 21 -9 22 -126 22 -110 0 -120 -2 -115 -17z"/>
<path d="M2421 3063 c0 -16 6 -66 12 -113 l12 -85 103 -3 102 -3 0 116 0 115
-115 0 -115 0 1 -27z"/>
<path d="M2740 2975 l0 -115 105 0 c93 0 105 2 105 18 1 9 7 61 14 115 l12 97
-118 0 -118 0 0 -115z"/>
<path d="M3070 3083 c0 -5 -7 -53 -15 -108 -8 -55 -15 -103 -15 -107 0 -5 47
-8 105 -8 58 0 105 1 105 3 0 2 9 52 20 112 11 60 20 110 20 112 0 7 -220 2
-220 -4z"/>
<path d="M2155 2748 c3 -13 14 -61 23 -108 l19 -85 96 -3 c112 -3 103 -17 83
128 l-11 85 -108 3 -108 3 6 -23z"/>
<path d="M2460 2754 c0 -8 5 -58 12 -110 l11 -94 84 0 83 0 0 110 0 110 -95 0
c-79 0 -95 -3 -95 -16z"/>
<path d="M2740 2660 l0 -110 84 0 83 0 12 88 c18 144 26 132 -84 132 l-95 0 0
-110z"/>
<path d="M3025 2738 c-6 -38 -25 -169 -25 -180 0 -5 40 -8 89 -8 63 0 92 4
100 14 10 12 41 158 41 194 0 9 -27 12 -100 12 l-99 0 -6 -32z"/>
<path d="M2403 1905 c-26 -18 -38 -67 -23 -94 28 -54 89 -63 130 -19 61 66
-32 165 -107 113z"/>
<path d="M2915 1895 c-46 -45 -24 -115 40 -131 50 -12 102 43 90 97 -13 59
-86 79 -130 34z"/>
</g>
</svg>
